Motion_pl17
version=1
nRows=15
nColumns=43
inDegrees=yes
endheader
time	pelvis_tilt	pelvis_list	pelvis_rotation	pelvis_tx	pelvis_ty	pelvis_tz	hip_flexion_r	hip_adduction_r	hip_rotation_r	knee_angle_r	ankle_angle_r	subtalar_angle_r	mtp_angle_r	hip_flexion_l	hip_adduction_l	hip_rotation_l	knee_angle_l	ankle_angle_l	subtalar_angle_l	mtp_angle_l	lumbar_extension	lumbar_bending	lumbar_rotation	neck_flexion	neck_lateral_bending	neck_rotation	arm_flex_r	arm_add_r	arm_rot_r	elbow_flex_r	pro_sup_r	wrist_flex_r	wrist_dev_r	hand_finger_flex_r	arm_flex_l	arm_add_l	arm_rot_l	elbow_flex_l	pro_sup_l	wrist_flex_l	wrist_dev_l	hand_finger_flex_l
      1.38250000	     -2.36251476	      0.86847523	     87.21701214	      0.00922216	      0.42193435	      0.49616229	     97.51641803	      0.18142341	     -2.20518452	   -142.28042221	     19.13402990	     -2.16170540	     38.34684110	     92.87057167	    -14.13336772	     -1.13989414	   -141.69377428	     21.93041161	     11.56883549	     43.02165284	    -66.13535953	     -3.57312339	     -1.90109128	     10.30829588	     -6.35926795	      3.28254974	     79.89040303	    -25.93124810	     22.67991794	     67.85249396	    123.82254931	    -19.33045947	      1.87213186	     24.92433063	     75.40442747	    -39.69048739	     21.86678215	     75.12563216	    100.63391080	    -14.81129264	     -0.10314655	     19.67500829
      1.38500000	     -2.43195476	      0.63833712	     87.15915388	      0.00907395	      0.41998264	      0.49550530	     98.07947157	      0.14205755	     -2.18789556	   -142.54380282	     18.96188816	     -2.08673984	     38.28152076	     93.31062794	    -14.21438287	     -1.17646810	   -141.95897920	     21.93057114	     11.61336635	     43.04106203	    -66.06404971	     -3.56103599	     -1.84693709	     10.41162628	     -6.67532937	      3.30941160	     80.95770731	    -25.65117134	     23.11483078	     67.60135769	    123.94837213	    -19.09917166	      1.81366215	     25.02615985	     76.42518169	    -39.48115033	     22.25784036	     74.98050691	    100.59835958	    -14.79127795	     -0.02226240	     19.76584927
      1.38750000	     -2.46146300	      0.47219974	     87.15712229	      0.00891740	      0.41827691	      0.49487389	     98.51937062	      0.06230957	     -2.23996708	   -142.78448682	     18.81611357	     -2.18069635	     38.21667400	     93.70564823	    -14.24356862	     -1.16122735	   -142.21320491	     21.86311202	     11.64080750	     43.06055489	    -66.07111240	     -3.48882714	     -1.81290804	     10.53786895	     -6.92543513	      3.29113825	     82.03337213	    -25.32249500	     23.55094581	     67.31135232	    124.06669546	    -18.90567869	      1.74696078	     25.11107679	     77.50779410	    -39.38406717	     22.80968693	     74.84301724	    100.52287481	    -14.83674176	     -0.00067546	     19.77661474
      1.39000000	     -2.38370988	      0.43530170	     87.20702540	      0.00884040	      0.41694475	      0.49423430	     98.75558026	     -0.05876806	     -2.49845547	   -143.00095570	     18.63174620	     -2.70514933	     38.04728928	     93.98904549	    -14.25026388	     -1.00067557	   -142.46680392	     21.72151528	     11.66816267	     43.13749912	    -66.23269319	     -3.32575885	     -1.76593307	     10.75967379	     -7.08775162	      3.33662826	     83.13806686	    -24.87471718	     23.98595060	     66.90406853	    124.04879933	    -18.99628600	      1.58935956	     25.24742351	     78.80344095	    -39.63275312	     24.06680178	     74.72921692	     99.61235770	    -15.75605576	     -0.13095067	     19.42435692
      1.39250000	     -2.44645996	      0.23331462	     87.18064743	      0.00866654	      0.41529203	      0.49358443	     99.21479906	     -0.08847235	     -2.47547722	   -143.22497665	     18.52068656	     -2.70133839	     38.02803419	     94.40249955	    -14.30119120	     -1.01832499	   -142.71298411	     21.66345609	     11.74319007	     43.15523095	    -66.18662611	     -3.28079622	     -1.71078112	     10.83926450	     -7.41156325	      3.34634656	     84.09961932	    -24.59759923	     24.36632978	     66.70631496	    124.15657886	    -18.81070304	      1.50072774	     25.31334132	     79.78547227	    -39.44952206	     24.51373282	     74.57675980	     99.60344353	    -15.70740135	     -0.05632609	     19.40330677
      1.39500000	     -2.45478719	      0.10470335	     87.21571045	      0.00846660	      0.41388512	      0.49294885	     99.53025895	     -0.17513701	     -2.52961711	   -143.42900485	     18.47342374	     -2.79867575	     38.00851094	     94.75809600	    -14.29371980	     -0.96517999	   -142.94853080	     21.53401719	     11.81728594	     43.17410229	    -66.22508951	     -3.16105388	     -1.68850535	     10.94242806	     -7.66420951	      3.32917786	     85.08237563	    -24.24447155	     24.76952315	     66.43322978	    124.25636812	    -18.66327319	      1.37821810	     25.34729365	     80.82638240	    -39.43772905	     25.14720376	     74.47610579	     99.62361354	    -15.73898670	     -0.02128884	     19.27065094
      1.39750000	     -2.44592004	      0.01180345	     87.25858244	      0.00828766	      0.41263477	      0.49227920	     99.76317683	     -0.25610278	     -2.60589047	   -143.61220240	     18.46425801	     -2.93119575	     37.98679493	     95.06656269	    -14.28115043	     -0.88917208	   -143.17866743	     21.40899758	     11.90064923	     43.19460449	    -66.29777162	     -3.02592009	     -1.66331747	     11.05237139	     -7.91495533	      3.34963054	     86.02596627	    -23.86394185	     25.14406135	     66.14443468	    124.32534074	    -18.56858248	      1.22851395	     25.33996947	     81.85488583	    -39.46312630	     25.83369465	     74.39019552	     99.63440468	    -15.85187779	     -0.00274745	     19.03746143
      1.40000000	     -2.42941836	     -0.06690209	     87.29541283	      0.00809418	      0.41149851	      0.49162359	     99.94577268	     -0.31471365	     -2.66575037	   -143.78523568	     18.50463085	     -3.06662766	     37.96165046	     95.33610074	    -14.25833361	     -0.78746946	   -143.40281095	     21.30448745	     11.99515465	     43.21671410	    -66.38284689	     -2.89010367	     -1.63441200	     11.14287980	     -8.14642630	      3.36542146	     86.94354408	    -23.47368756	     25.50570818	     65.84635433	    124.36105942	    -18.50618667	      1.07093742	     25.29499067	     82.86178124	    -39.52251809	     26.55106420	     74.32641977	     99.64731155	    -15.98100342	     -0.00686495	     18.74515710
      1.40250000	     -2.39678613	     -0.11896314	     87.33185379	      0.00793617	      0.41052172	      0.49094650	    100.06062623	     -0.32986299	     -2.72326637	   -143.95192883	     18.58468100	     -3.20068990	     37.92012497	     95.55347419	    -14.21796065	     -0.66320392	   -143.58592437	     21.22873799	     12.10705214	     43.24567568	    -66.49771709	     -2.74588632	     -1.60656378	     11.21520677	     -8.35071640	      3.38500694	     87.83806437	    -23.07389158	     25.87856121	     65.54649560	    124.33828306	    -18.49469756	      0.89711883	     25.19528975	     83.87946341	    -39.65295348	     27.35487997	     74.27795184	     99.63425928	    -16.13288088	     -0.05891708	     18.35480965
      1.40500000	     -2.43024154	     -0.23660007	     87.33254380	      0.00779836	      0.40955017	      0.49031470	    100.23184786	     -0.33463235	     -2.71733709	   -144.06495987	     18.66729637	     -3.24032341	     37.91674277	     95.78121181	    -14.23161095	     -0.65811699	   -143.77009989	     21.22350029	     12.14254175	     43.25225730	    -66.53010003	     -2.69574283	     -1.57246529	     11.29283939	     -8.43412007	      3.37336282	     88.52177599	    -22.65532698	     25.93646722	     65.35296497	    124.33379599	    -18.47028538	      0.89886540	     25.15280479	     84.59379178	    -39.36301766	     27.47289658	     74.17980449	     99.66084743	    -16.14636530	     -0.05629991	     18.26752327
      1.40750000	     -2.35395235	     -0.15263455	     87.37949231	      0.00779363	      0.40901247	      0.48968184	    100.12140753	     -0.38400211	     -2.87446697	   -144.20075287	     18.79663029	     -3.36958022	     37.75895348	     95.79437924	    -14.22001745	     -0.48305256	   -143.93916553	     21.19942585	     12.35050872	     43.31254797	    -66.79895187	     -2.54355897	     -1.59531112	     11.40938287	     -8.57506515	      3.45047238	     89.45809985	    -22.25395992	     26.52127643	     64.97747820	    124.06842939	    -18.67983265	      0.63421531	     24.80896276	     85.86366512	    -39.82276977	     28.83225377	     74.13632020	     99.65189032	    -16.31268312	     -0.38266883	     17.48782669
      1.41000000	     -2.39560132	     -0.31650448	     87.35917628	      0.00765116	      0.40818330	      0.48908279	    100.28662180	     -0.35710929	     -2.85000782	   -144.27105586	     18.96459975	     -3.42668110	     37.75866759	     96.00842768	    -14.22026096	     -0.50069075	   -144.05972899	     21.22008123	     12.36562003	     43.31909981	    -66.77778284	     -2.50864328	     -1.55931850	     11.36166432	     -8.68638204	      3.39694637	     90.08886358	    -21.88571867	     26.62233002	     64.81772117	    124.07088071	    -18.62400254	      0.65572986	     24.78144568	     86.51788195	    -39.55561840	     28.94280687	     74.06198543	     99.69168475	    -16.23537155	     -0.37409190	     17.45068460
      1.41250000	     -2.39696426	     -0.38628372	     87.35364014	      0.00759223	      0.40721695	      0.48836791	    100.35919853	     -0.36726874	     -2.92262854	   -144.43404263	     19.28207512	     -3.49746094	     37.72723134	     96.15007825	    -14.24697231	     -0.47916014	   -144.25106773	     21.26729703	     12.37998764	     43.33726501	    -66.79589289	     -2.43084802	     -1.56444421	     11.20920583	     -8.90763343	      3.26683810	     90.81768352	    -21.54459043	     27.07449997	     64.56332774	    124.06783767	    -18.55591026	      0.63772749	     24.69774593	     87.42785133	    -39.68188059	     29.67408149	     73.95997510	     99.95280361	    -15.86179143	     -0.48788101	     17.39669886
      1.41500000	     -2.40016174	     -0.42163463	     87.33607138	      0.00758631	      0.40677131	      0.48781066	    100.32939700	     -0.35810846	     -2.96749662	   -144.48821795	     19.51936991	     -3.54761350	     37.64906330	     96.17798647	    -14.25256474	     -0.44951210	   -144.34025300	     21.32983909	     12.39639273	     43.36108144	    -66.91680287	     -2.39578013	     -1.55266592	     11.16543536	     -8.95969387	      3.24541190	     91.48213761	    -21.19478544	     27.34360274	     64.35920458	    123.95863400	    -18.69026952	      0.63937669	     24.51314000	     88.31690803	    -39.68376161	     30.24365430	     73.87419802	    100.18345284	    -15.58871816	     -0.69059257	     17.24839976
      1.41750000	     -2.42527246	     -0.56828918	     87.31224361	      0.00749269	      0.40634945	      0.48728192	    100.40189447	     -0.34993370	     -2.98897963	   -144.50216913	     19.64490557	     -3.58003185	     37.63498143	     96.30002393	    -14.26837602	     -0.50522013	   -144.38317148	     21.35547689	     12.40682095	     43.36731785	    -66.93310946	     -2.37177614	     -1.50915065	     11.14229440	     -8.98326424	      3.23774267	     92.00774411	    -20.84347497	     27.36558993	     64.24975858	    123.92765663	    -18.72861491	      0.66742900	     24.44958712	     88.89511876	    -39.40869004	     30.29629029	     73.81191730	    100.24400018	    -15.53612179	     -0.71685854	     17.20319809
